<?xml version="1.0" standalone="no"?>
<!DOCTYPE svg PUBLIC "-//W3C//DTD SVG 20010904//EN" "http://www.w3.org/TR/2001/REC-SVG-20010904/DTD/svg10.dtd">
<!-- Created using Krita: https://krita.org -->
<svg xmlns="http://www.w3.org/2000/svg" 
    xmlns:xlink="http://www.w3.org/1999/xlink"
    xmlns:krita="http://krita.org/namespaces/svg/krita"
    xmlns:sodipodi="http://sodipodi.sourceforge.net/DTD/sodipodi-0.dtd"
    width="297.6pt"
    height="420.96pt"
    viewBox="0 0 297.6 420.96">
<defs/>
<path id="shape40" transform="matrix(0.999999856436136 0 0 0.999999856436136 125.345877500539 128.184170744006)" fill="#3d0700" fill-rule="evenodd" stroke-opacity="0" stroke="#000000" stroke-width="0" stroke-linecap="square" stroke-linejoin="bevel" d="M1.98 0L0 5.04L2.16 10.26L8.1 12.78L14.4 11.34L16.02 6.84L17.1 2.88L13.14 2.7L11.52 5.22L9 6.12L4.86 5.04L2.88 2.16L1.98 0" sodipodi:nodetypes="ccccccccccccc"/><path id="shape41" transform="matrix(0.999999856436136 0 0 0.999999856436136 157.349997578585 126.723582135373)" fill="#3d0700" fill-rule="evenodd" stroke-opacity="0" stroke="#000000" stroke-width="0" stroke-linecap="square" stroke-linejoin="bevel" d="M2.52 0.719984L0 4.67998L0.36 8.99998L2.52 11.88L6.48 13.5L14.04 13.32L17.28 6.11998L14.76 3.78L13.68 5.75998L9.72 7.55998L5.94 7.38L3.96 4.67998L4.32 1.07998L1.98 0" sodipodi:nodetypes="cccccccccccccc"/><path id="shape42" transform="matrix(0.999999856436136 0 0 0.999999856436136 127.78881982185 126.433875359077)" fill="#fdfffd" fill-rule="evenodd" stroke-opacity="0" stroke="#000000" stroke-width="0" stroke-linecap="square" stroke-linejoin="bevel" d="M0.72 0L0 3.42L1.44 6.84L6.12 7.74L8.28 5.58L9 2.88L5.22 0.18L0.72 0" sodipodi:nodetypes="cccccccc"/><path id="shape43" transform="matrix(0.999999856436136 0 0 0.999999856436136 162.15000129906 126.166967718997)" fill="#fdfffd" fill-rule="evenodd" stroke-opacity="0" stroke="#000000" stroke-width="0" stroke-linecap="square" stroke-linejoin="bevel" d="M2.03999 0.256615L0.36 1.9366L0 4.0966L0.72 6.2566L3.06 7.5166L5.63999 7.27661L9 5.8966L9.18 1.5766C6.99318 0.363883 4.70315 -0.436022 2.03999 0.256615" sodipodi:nodetypes="ccccccccc"/>
</svg>
