<?xml version="1.0" standalone="no"?>
<!DOCTYPE svg PUBLIC "-//W3C//DTD SVG 20010904//EN" "http://www.w3.org/TR/2001/REC-SVG-20010904/DTD/svg10.dtd">
<!-- Created using Krita: https://krita.org -->
<svg xmlns="http://www.w3.org/2000/svg" 
    xmlns:xlink="http://www.w3.org/1999/xlink"
    xmlns:krita="http://krita.org/namespaces/svg/krita"
    xmlns:sodipodi="http://sodipodi.sourceforge.net/DTD/sodipodi-0.dtd"
    width="297.6pt"
    height="420.96pt"
    viewBox="0 0 297.6 420.96">
<defs/>
<ellipse id="shape3" transform="matrix(0.999999856436136 0 0 0.999999856436136 115.030487323685 188.118719864306)" rx="2.52" ry="2.58911332543673" cx="2.52" cy="2.58911332543673" fill="none" stroke="#f54a34" stroke-width="1.7928" stroke-linecap="square" stroke-linejoin="bevel"/><circle id="shape4" transform="matrix(0.999999856436136 0 0 0.999999856436136 109.837838844638 195.10797167499)" r="2.52" cx="2.52" cy="2.52" fill="none" stroke="#f54a34" stroke-width="1.7928" stroke-linecap="square" stroke-linejoin="bevel"/><path id="shape5" transform="matrix(0.999999856436136 0 0 0.999999856436136 114.507825813462 202.11943329618)" sodipodi:type="arc" sodipodi:rx="2.11759048340906" sodipodi:ry="1.46876432393259" sodipodi:cx="2.11771365174599" sodipodi:cy="1.4687907674896" sodipodi:start="0.452158447662073" sodipodi:end="5.46443320579416" sodipodi:open="true" d="M3.56431 0.396161C2.89637 -0.0372024 1.90278 -0.124156 1.10058 0.180551C0.298386 0.485257 -0.131111 1.11276 0.0355968 1.73651C0.202305 2.36025 0.927541 2.83928 1.8339 2.9243C2.74026 3.00933 3.6229 2.68113 4.0225 2.11051" fill="none" stroke="#f54a34" stroke-width="1.7928" stroke-linecap="square" stroke-linejoin="bevel"/><path id="shape12" transform="matrix(0.999999856436136 0 0 0.999999856436136 90.9429622916726 174.14759645143)" sodipodi:type="arc" sodipodi:rx="3" sodipodi:ry="3" sodipodi:cx="3.00017771463401" sodipodi:cy="3.00009206612943" sodipodi:start="2.15079615796211" sodipodi:end="5.81954171735698" sodipodi:open="true" d="M5.68346 1.65846C5.11886 0.529247 3.90771 -0.125653 2.65367 0.020171C1.39962 0.165995 0.371059 1.08133 0.0806341 2.30997C-0.209791 3.53861 0.300074 4.8176 1.35611 5.50948" fill="none" stroke="#f54a34" stroke-width="1.7928" stroke-linecap="square" stroke-linejoin="bevel"/><path id="shape13" transform="matrix(0.999999856436136 0 0 0.999999856436136 82.5431258262503 178.954611187821)" sodipodi:type="arc" sodipodi:rx="2.7540594568357" sodipodi:ry="3.08488097474811" sodipodi:cx="2.75407416998652" sodipodi:cy="3.08488739497425" sodipodi:start="2.50821211845685" sodipodi:end="5.76840542891608" sodipodi:open="true" d="M5.15121 1.56607C4.64758 0.568753 3.69195 -0.0337262 2.6695 0.00146143C1.64705 0.036649 0.726241 0.703706 0.278217 1.73377C-0.169808 2.76384 -0.0712305 3.98719 0.534216 4.91075" fill="none" stroke="#f54a34" stroke-width="1.7928" stroke-linecap="square" stroke-linejoin="bevel"/><path id="shape14" transform="matrix(0.999999856436136 0 0 0.999999856436136 74.0831464412944 182.067550747467)" sodipodi:type="arc" sodipodi:rx="2.31058839405747" sodipodi:ry="2.64" sodipodi:cx="2.31059699465784" sodipodi:cy="2.64013663307312" sodipodi:start="2.60510009936802" sodipodi:end="6.18938933580885" sodipodi:open="true" d="M4.61103 2.39288C4.52219 1.31383 3.86516 0.406437 2.95411 0.104589C2.04306 -0.197259 1.0631 0.167763 0.482803 1.02512C-0.0974912 1.88247 -0.160212 3.05796 0.324631 3.98951" fill="none" stroke="#f54a34" stroke-width="1.7928" stroke-linecap="square" stroke-linejoin="bevel"/><path id="shape15" transform="matrix(0.999999856436136 0 0 0.999999856436136 65.7738365352236 181.640400999905)" sodipodi:type="arc" sodipodi:rx="2.3699877174387" sodipodi:ry="2.40546847283586" sodipodi:cx="2.37019656604734" sodipodi:cy="2.40558675634979" sodipodi:start="2.92389964124726" sodipodi:end="0.609659946669907" sodipodi:open="true" d="M4.31321 3.78293C4.93448 2.88008 4.87234 1.66433 4.16236 0.83157C3.45239 -0.00118626 2.27592 -0.23825 1.30637 0.256075C0.336811 0.7504 -0.178192 1.84986 0.0561446 2.92511" fill="none" stroke="#f54a34" stroke-width="1.7928" stroke-linecap="square" stroke-linejoin="bevel"/><path id="shape16" transform="matrix(0.999999856436136 0 0 0.999999856436136 56.5766027653626 122.284416077927)" sodipodi:type="arc" sodipodi:rx="3.96" sodipodi:ry="4.08" sodipodi:cx="-1.27345782528799" sodipodi:cy="3.86327988531329" sodipodi:start="5.03978690314903" sodipodi:end="1.16304700340862" sodipodi:open="true" d="M0.296857 7.60878C1.80053 6.93958 2.74914 5.38564 2.68335 3.69941C2.61756 2.01318 1.55095 0.542696 0 0" fill="none" stroke="#f54a34" stroke-width="1.7928" stroke-linecap="square" stroke-linejoin="bevel"/><path id="shape19" transform="matrix(0.999999856436136 0 0 0.999999856436136 77.8112641275302 146.787544357098)" sodipodi:type="arc" sodipodi:rx="3.72" sodipodi:ry="3.23999999999999" sodipodi:cx="3.65187776401379" sodipodi:cy="3.24014808837565" sodipodi:start="3.33326213170763" sodipodi:end="0.646660205416205" sodipodi:open="true" d="M6.62081 5.19233C7.54434 4.12687 7.62301 2.67714 6.81898 1.54057C6.01495 0.403997 4.49284 -0.186702 2.98492 0.0526488C1.47699 0.292 0.291988 1.3124 0 2.62293" fill="none" stroke="#f54a34" stroke-width="1.7928" stroke-linecap="square" stroke-linejoin="bevel"/><path id="shape20" transform="matrix(0.999999856436136 0 0 0.999999856436136 61.9030571100014 120.534823326145)" sodipodi:type="arc" sodipodi:rx="2.88" sodipodi:ry="2.52" sodipodi:cx="2.88008706538655" sodipodi:cy="0.452872888271743" sodipodi:start="6.28318530717959" sodipodi:end="3.3222857852726" sodipodi:open="true" d="M0.0469753 1.11022e-16C-0.149118 0.939216 0.278241 1.89474 1.1508 2.46803C2.02335 3.04131 3.19125 3.13389 4.16734 2.70714C5.14344 2.2804 5.76009 1.40763 5.76009 0.452873" fill="none" stroke="#f54a34" stroke-width="1.7928" stroke-linecap="square" stroke-linejoin="bevel"/><path id="shape23" transform="matrix(0.999999856436136 0 0 0.999999856436136 71.0555587157017 103.562896047384)" sodipodi:type="arc" sodipodi:rx="2.98511613555026" sodipodi:ry="3.13231583600496" sodipodi:cx="0.968159520276309" sodipodi:cy="3.13250667952555" sodipodi:start="4.48803786455925" sodipodi:end="1.90109854981517" sodipodi:open="true" d="M0 6.0955C1.19782 6.52644 2.52442 6.1175 3.30978 5.07522C4.09514 4.03293 4.16835 2.58413 3.49244 1.46054C2.81653 0.336946 1.53859 -0.216913 0.304049 0.0786908" fill="none" stroke="#f54a34" stroke-width="1.7928" stroke-linecap="square" stroke-linejoin="bevel"/><ellipse id="shape31" transform="matrix(0.999999844749942 0 0 0.999999844749942 122.144578594485 183.282109769658)" rx="3.05470158665147" ry="2.92742235387434" cx="3.05470158665147" cy="2.92742235387434" fill="none" stroke="#f54a34" stroke-width="1.7928" stroke-linecap="square" stroke-linejoin="bevel"/><path id="shape51" transform="matrix(-0.579756630466547 0.814789504739876 -0.814789504739876 -0.579756630466547 63.9458401835127 180.022600124805)" sodipodi:type="arc" sodipodi:rx="1.72325986103195" sodipodi:ry="2.03435473918955" sodipodi:cx="1.72336009337283" sodipodi:cy="2.03439136560717" sodipodi:start="0.452158447662073" sodipodi:end="5.46443320579416" sodipodi:open="true" d="M2.90058 0.548714C2.35702 -0.0515282 1.54845 -0.171965 0.895636 0.250077C0.242821 0.67212 -0.106696 1.54126 0.0289681 2.4052C0.164633 3.26914 0.754817 3.93263 1.4924 4.05039C2.22998 4.16816 2.94825 3.71358 3.27344 2.92322" fill="none" stroke="#f54a34" stroke-width="1.7928" stroke-linecap="square" stroke-linejoin="bevel"/><path id="shape121" transform="matrix(0.999999826138714 0 0 0.999999826138714 98.4939772566293 166.481248675348)" sodipodi:type="arc" sodipodi:rx="3.30209155169663" sodipodi:ry="3.49770150024986" sodipodi:cx="3.30228716169383" sodipodi:cy="3.49780884019621" sodipodi:start="2.15079615796211" sodipodi:end="5.81954171735698" sodipodi:open="true" d="M6.25577 1.9336C5.63432 0.61705 4.30121 -0.146498 2.92088 0.0235174C1.54056 0.193533 0.408424 1.26073 0.0887538 2.6932C-0.230916 4.12567 0.330291 5.61684 1.49266 6.42351" fill="none" stroke="#f54a34" stroke-width="1.7928" stroke-linecap="square" stroke-linejoin="bevel"/><ellipse id="shape32" transform="matrix(0.999999837857458 0 0 0.999999837857458 130.035879762334 176.069607202108)" rx="3.46047409436778" ry="3.2101585324445" cx="3.46047409436778" cy="3.2101585324445" fill="none" stroke="#f54a34" stroke-width="1.7928" stroke-linecap="square" stroke-linejoin="bevel"/><path id="shape191" transform="matrix(0.999999833208249 0 0 0.999999833208249 68.5447534814498 140.193048266534)" sodipodi:type="arc" sodipodi:rx="3.72" sodipodi:ry="3.23999999999999" sodipodi:cx="3.65187776401379" sodipodi:cy="3.24014808837565" sodipodi:start="3.33326213170763" sodipodi:end="0.646660205416205" sodipodi:open="true" d="M6.62081 5.19233C7.54434 4.12687 7.62301 2.67714 6.81898 1.54057C6.01495 0.403997 4.49284 -0.186702 2.98492 0.0526488C1.47699 0.292 0.291988 1.3124 0 2.62293" fill="none" stroke="#f54a34" stroke-width="1.7928" stroke-linecap="square" stroke-linejoin="bevel"/><path id="shape192" transform="matrix(0.999999833208249 0 0 0.999999833208249 60.3282140400739 132.301857930252)" sodipodi:type="arc" sodipodi:rx="3.72" sodipodi:ry="3.23999999999999" sodipodi:cx="2.70431378499376" sodipodi:cy="3.24002728205708" sodipodi:start="3.89849572598856" sodipodi:end="0.646660205416205" sodipodi:open="true" d="M5.67325 5.19221C6.86316 3.81943 6.61406 1.87609 5.10587 0.765661C3.59767 -0.344767 1.35609 -0.235212 4.44089e-16 1.01521" fill="none" stroke="#f54a34" stroke-width="1.7928" stroke-linecap="square" stroke-linejoin="bevel"/><path id="shape231" transform="matrix(0.892488994984758 -0.451068857856154 0.451068857856154 0.892488994984758 74.0749724891885 115.07049734708)" sodipodi:type="arc" sodipodi:rx="3.6" sodipodi:ry="3.48" sodipodi:cx="1.16758414571775" sodipodi:cy="3.48021202697507" sodipodi:start="4.48803786455925" sodipodi:end="1.90109854981517" sodipodi:open="true" d="M0 6.7721C1.44455 7.25087 3.04441 6.79654 3.99154 5.63856C4.93867 4.48058 5.02696 2.87096 4.21183 1.62265C3.39669 0.374347 1.85551 -0.24099 0.366679 0.0874254" fill="none" stroke="#f54a34" stroke-width="1.7928" stroke-linecap="square" stroke-linejoin="bevel"/><path id="shape232" transform="matrix(0.999999860348269 0 0 0.999999860348269 81.7406282962857 128.38121822817)" sodipodi:type="arc" sodipodi:rx="3.6" sodipodi:ry="3.48" sodipodi:cx="3.45545635727719" sodipodi:cy="3.48007335126572" sodipodi:start="3.4259255931996" sodipodi:end="1.90109854981517" sodipodi:open="true" d="M2.28787 6.77196C3.67949 7.23319 5.2214 6.8295 6.18202 5.75243C7.14263 4.67537 7.32866 3.14166 6.65182 1.87901C5.97499 0.616357 4.5715 -0.121159 3.10726 0.0163897C1.64302 0.153938 0.412679 1.13887 0 2.50387" fill="none" stroke="#f54a34" stroke-width="1.7928" stroke-linecap="square" stroke-linejoin="bevel"/><path id="shape233" transform="matrix(0.999999807734581 0 0 0.999999807734581 77.5877650978246 97.171552130223)" sodipodi:type="arc" sodipodi:rx="2.98511613555026" sodipodi:ry="3.13231583600496" sodipodi:cx="2.98518578178397" sodipodi:cy="1.45580787409774" sodipodi:start="6.14185265973959" sodipodi:end="3.62496800701339" sodipodi:open="true" d="M0.342071 0C-0.258369 1.2003 -0.0548283 2.66968 0.846421 3.64095C1.74767 4.61221 3.14207 4.86491 4.30158 4.26711C5.46108 3.6693 6.12252 2.35668 5.94054 1.01458" fill="none" stroke="#f54a34" stroke-width="1.7928" stroke-linecap="square" stroke-linejoin="bevel"/><ellipse id="shape311" transform="matrix(-0.999999871435631 0 0 0.999999871435631 184.570298183946 187.985596250504)" rx="2.52" ry="2.58911332543673" cx="2.52" cy="2.58911332543673" fill="none" stroke="#f54a34" stroke-width="1.7928" stroke-linecap="square" stroke-linejoin="bevel"/><circle id="shape41" transform="matrix(-0.999999871435631 0 0 0.999999871435631 189.762946740881 194.974848166023)" r="2.52" cx="2.52" cy="2.52" fill="none" stroke="#f54a34" stroke-width="1.7928" stroke-linecap="square" stroke-linejoin="bevel"/><path id="shape511" transform="matrix(-0.999999871435631 0 0 0.999999871435631 185.092959702009 201.986309892382)" sodipodi:type="arc" sodipodi:rx="2.11759048340906" sodipodi:ry="1.46876432393259" sodipodi:cx="2.11771365174599" sodipodi:cy="1.4687907674896" sodipodi:start="0.452158447662073" sodipodi:end="5.46443320579416" sodipodi:open="true" d="M3.56431 0.396161C2.89637 -0.0372024 1.90278 -0.124156 1.10058 0.180551C0.298386 0.485257 -0.131111 1.11276 0.0355968 1.73651C0.202305 2.36025 0.927541 2.83928 1.8339 2.9243C2.74026 3.00933 3.6229 2.68113 4.0225 2.11051" fill="none" stroke="#f54a34" stroke-width="1.7928" stroke-linecap="square" stroke-linejoin="bevel"/><path id="shape1211" transform="matrix(-0.999999871435631 0 0 0.999999871435631 208.65782357726 174.014472628068)" sodipodi:type="arc" sodipodi:rx="3" sodipodi:ry="3" sodipodi:cx="3.00017771463401" sodipodi:cy="3.00009206612943" sodipodi:start="2.15079615796211" sodipodi:end="5.81954171735698" sodipodi:open="true" d="M5.68346 1.65846C5.11886 0.529247 3.90771 -0.125653 2.65367 0.020171C1.39962 0.165995 0.371059 1.08133 0.0806341 2.30997C-0.209791 3.53861 0.300074 4.8176 1.35611 5.50948" fill="none" stroke="#f54a34" stroke-width="1.7928" stroke-linecap="square" stroke-linejoin="bevel"/><path id="shape131" transform="matrix(-0.999999871435631 0 0 0.999999871435631 217.057660168675 178.821487436562)" sodipodi:type="arc" sodipodi:rx="2.7540594568357" sodipodi:ry="3.08488097474811" sodipodi:cx="2.75407416998652" sodipodi:cy="3.08488739497425" sodipodi:start="2.50821211845685" sodipodi:end="5.76840542891608" sodipodi:open="true" d="M5.15121 1.56607C4.64758 0.568753 3.69195 -0.0337262 2.6695 0.00146143C1.64705 0.036649 0.726241 0.703706 0.278217 1.73377C-0.169808 2.76384 -0.0712305 3.98719 0.534216 4.91075" fill="none" stroke="#f54a34" stroke-width="1.7928" stroke-linecap="square" stroke-linejoin="bevel"/><path id="shape141" transform="matrix(-0.999999871435631 0 0 0.999999871435631 225.517639680526 181.934427042901)" sodipodi:type="arc" sodipodi:rx="2.31058839405747" sodipodi:ry="2.64" sodipodi:cx="2.31059699465784" sodipodi:cy="2.64013663307312" sodipodi:start="2.60510009936802" sodipodi:end="6.18938933580885" sodipodi:open="true" d="M4.61103 2.39288C4.52219 1.31383 3.86516 0.406437 2.95411 0.104589C2.04306 -0.197259 1.0631 0.167763 0.482803 1.02512C-0.0974912 1.88247 -0.160212 3.05796 0.324631 3.98951" fill="none" stroke="#f54a34" stroke-width="1.7928" stroke-linecap="square" stroke-linejoin="bevel"/><path id="shape151" transform="matrix(-0.999999871435631 0 0 0.999999871435631 233.826949711233 181.507277288931)" sodipodi:type="arc" sodipodi:rx="2.3699877174387" sodipodi:ry="2.40546847283586" sodipodi:cx="2.37019656604734" sodipodi:cy="2.40558675634979" sodipodi:start="2.92389964124726" sodipodi:end="0.609659946669907" sodipodi:open="true" d="M4.31321 3.78293C4.93448 2.88008 4.87234 1.66433 4.16236 0.83157C3.45239 -0.00118626 2.27592 -0.23825 1.30637 0.256075C0.336811 0.7504 -0.178192 1.84986 0.0561446 2.92511" fill="none" stroke="#f54a34" stroke-width="1.7928" stroke-linecap="square" stroke-linejoin="bevel"/><path id="shape161" transform="matrix(-0.999999871435631 0 0 0.999999871435631 243.024183619048 122.151291476643)" sodipodi:type="arc" sodipodi:rx="3.96" sodipodi:ry="4.08" sodipodi:cx="-1.27345782528799" sodipodi:cy="3.86327988531329" sodipodi:start="5.03978690314903" sodipodi:end="1.16304700340862" sodipodi:open="true" d="M0.296857 7.60878C1.80053 6.93958 2.74914 5.38564 2.68335 3.69941C2.61756 2.01318 1.55095 0.542696 0 0" fill="none" stroke="#f54a34" stroke-width="1.7928" stroke-linecap="square" stroke-linejoin="bevel"/><path id="shape1911" transform="matrix(-0.999999871435631 0 0 0.999999871435631 221.789521938371 146.65442012335)" sodipodi:type="arc" sodipodi:rx="3.72" sodipodi:ry="3.23999999999999" sodipodi:cx="3.65187776401379" sodipodi:cy="3.24014808837565" sodipodi:start="3.33326213170763" sodipodi:end="0.646660205416205" sodipodi:open="true" d="M6.62081 5.19233C7.54434 4.12687 7.62301 2.67714 6.81898 1.54057C6.01495 0.403997 4.49284 -0.186702 2.98492 0.0526488C1.47699 0.292 0.291988 1.3124 0 2.62293" fill="none" stroke="#f54a34" stroke-width="1.7928" stroke-linecap="square" stroke-linejoin="bevel"/><path id="shape201" transform="matrix(-0.999999871435631 0 0 0.999999871435631 237.697729194515 120.401698698618)" sodipodi:type="arc" sodipodi:rx="2.88" sodipodi:ry="2.52" sodipodi:cx="2.88008706538655" sodipodi:cy="0.452872888271743" sodipodi:start="6.28318530717959" sodipodi:end="3.3222857852726" sodipodi:open="true" d="M0.0469753 1.11022e-16C-0.149118 0.939216 0.278241 1.89474 1.1508 2.46803C2.02335 3.04131 3.19125 3.13389 4.16734 2.70714C5.14344 2.2804 5.76009 1.40763 5.76009 0.452873" fill="none" stroke="#f54a34" stroke-width="1.7928" stroke-linecap="square" stroke-linejoin="bevel"/><path id="shape2311" transform="matrix(-0.999999871435631 0 0 0.999999871435631 228.545227451531 103.429771165287)" sodipodi:type="arc" sodipodi:rx="2.98511613555026" sodipodi:ry="3.13231583600496" sodipodi:cx="0.968159520276309" sodipodi:cy="3.13250667952555" sodipodi:start="4.48803786455925" sodipodi:end="1.90109854981517" sodipodi:open="true" d="M0 6.0955C1.19782 6.52644 2.52442 6.1175 3.30978 5.07522C4.09514 4.03293 4.16835 2.58413 3.49244 1.46054C2.81653 0.336946 1.53859 -0.216913 0.304049 0.0786908" fill="none" stroke="#f54a34" stroke-width="1.7928" stroke-linecap="square" stroke-linejoin="bevel"/><ellipse id="shape311" transform="matrix(-0.999999859749437 0 0 0.999999859749437 177.456206806439 183.148986083309)" rx="3.05470158665147" ry="2.92742235387434" cx="3.05470158665147" cy="2.92742235387434" fill="none" stroke="#f54a34" stroke-width="1.7928" stroke-linecap="square" stroke-linejoin="bevel"/><path id="shape511" transform="matrix(0.579756639162605 0.814789516961309 0.814789516961309 -0.579756639162605 235.654946090362 179.889476389565)" sodipodi:type="arc" sodipodi:rx="1.72325986103195" sodipodi:ry="2.03435473918955" sodipodi:cx="1.72336009337283" sodipodi:cy="2.03439136560717" sodipodi:start="0.452158447662073" sodipodi:end="5.46443320579416" sodipodi:open="true" d="M2.90058 0.548714C2.35702 -0.0515282 1.54845 -0.171965 0.895636 0.250077C0.242821 0.67212 -0.106696 1.54126 0.0289681 2.4052C0.164633 3.26914 0.754817 3.93263 1.4924 4.05039C2.22998 4.16816 2.94825 3.71358 3.27344 2.92322" fill="none" stroke="#f54a34" stroke-width="1.7928" stroke-linecap="square" stroke-linejoin="bevel"/><path id="shape1211" transform="matrix(-0.999999841138207 0 0 0.999999841138207 201.106808499041 166.348124736995)" sodipodi:type="arc" sodipodi:rx="3.30209155169663" sodipodi:ry="3.49770150024986" sodipodi:cx="3.30228716169383" sodipodi:cy="3.49780884019621" sodipodi:start="2.15079615796211" sodipodi:end="5.81954171735698" sodipodi:open="true" d="M6.25577 1.9336C5.63432 0.61705 4.30121 -0.146498 2.92088 0.0235174C1.54056 0.193533 0.408424 1.26073 0.0887538 2.6932C-0.230916 4.12567 0.330291 5.61684 1.49266 6.42351" fill="none" stroke="#f54a34" stroke-width="1.7928" stroke-linecap="square" stroke-linejoin="bevel"/><ellipse id="shape321" transform="matrix(-0.999999852856953 0 0 0.999999852856953 169.564905520224 175.936483407575)" rx="3.46047409436778" ry="3.2101585324445" cx="3.46047409436778" cy="3.2101585324445" fill="none" stroke="#f54a34" stroke-width="1.7928" stroke-linecap="square" stroke-linejoin="bevel"/><path id="shape1911" transform="matrix(-0.999999848207744 0 0 0.999999848207744 231.056032723444 140.059923933871)" sodipodi:type="arc" sodipodi:rx="3.72" sodipodi:ry="3.23999999999999" sodipodi:cx="3.65187776401379" sodipodi:cy="3.24014808837565" sodipodi:start="3.33326213170763" sodipodi:end="0.646660205416205" sodipodi:open="true" d="M6.62081 5.19233C7.54434 4.12687 7.62301 2.67714 6.81898 1.54057C6.01495 0.403997 4.49284 -0.186702 2.98492 0.0526488C1.47699 0.292 0.291988 1.3124 0 2.62293" fill="none" stroke="#f54a34" stroke-width="1.7928" stroke-linecap="square" stroke-linejoin="bevel"/><path id="shape1921" transform="matrix(-0.999999848207744 0 0 0.999999848207744 239.901960918304 132.168760739865)" sodipodi:type="arc" sodipodi:rx="3.72" sodipodi:ry="3.23999999999999" sodipodi:cx="3.33370251076956" sodipodi:cy="3.24000002141349" sodipodi:start="3.60135813060783" sodipodi:end="0.646660205416205" sodipodi:open="true" d="M6.30264 5.19218C7.15351 4.21055 7.29284 2.89394 6.66232 1.79338C6.0318 0.692824 4.74017 -0.00188422 3.32799 3.83877e-06C1.91582 0.0018919 0.626637 0.700051 0 1.80229" fill="none" stroke="#f54a34" stroke-width="1.7928" stroke-linecap="square" stroke-linejoin="bevel"/><path id="shape2311" transform="matrix(-0.892489008371643 -0.45106886462196 -0.45106886462196 0.892489008371643 225.525813632755 114.937372637592)" sodipodi:type="arc" sodipodi:rx="3.6" sodipodi:ry="3.48" sodipodi:cx="1.16758414571775" sodipodi:cy="3.48021202697507" sodipodi:start="4.48803786455925" sodipodi:end="1.90109854981517" sodipodi:open="true" d="M0 6.7721C1.44455 7.25087 3.04441 6.79654 3.99154 5.63856C4.93867 4.48058 5.02696 2.87096 4.21183 1.62265C3.39669 0.374347 1.85551 -0.24099 0.366679 0.0874254" fill="none" stroke="#f54a34" stroke-width="1.7928" stroke-linecap="square" stroke-linejoin="bevel"/><path id="shape2321" transform="matrix(-0.999999875347763 0 0 0.999999875347763 217.860157710677 128.248093718335)" sodipodi:type="arc" sodipodi:rx="3.6" sodipodi:ry="3.48" sodipodi:cx="3.45545635727719" sodipodi:cy="3.48007335126572" sodipodi:start="3.4259255931996" sodipodi:end="1.90109854981517" sodipodi:open="true" d="M2.28787 6.77196C3.67949 7.23319 5.2214 6.8295 6.18202 5.75243C7.14263 4.67537 7.32866 3.14166 6.65182 1.87901C5.97499 0.616357 4.5715 -0.121159 3.10726 0.0163897C1.64302 0.153938 0.412679 1.13887 0 2.50387" fill="none" stroke="#f54a34" stroke-width="1.7928" stroke-linecap="square" stroke-linejoin="bevel"/><path id="shape2331" transform="matrix(-0.999999822734075 0 0 0.999999822734075 222.013020971429 97.0384271522593)" sodipodi:type="arc" sodipodi:rx="2.98511613555026" sodipodi:ry="3.13231583600496" sodipodi:cx="2.98518578178397" sodipodi:cy="1.45580787409774" sodipodi:start="6.14185265973959" sodipodi:end="3.62496800701339" sodipodi:open="true" d="M0.342071 0C-0.258369 1.2003 -0.0548283 2.66968 0.846421 3.64095C1.74767 4.61221 3.14207 4.86491 4.30158 4.26711C5.46108 3.6693 6.12252 2.35668 5.94054 1.01458" fill="none" stroke="#f54a34" stroke-width="1.7928" stroke-linecap="square" stroke-linejoin="bevel"/>
</svg>
