<?xml version="1.0" standalone="no"?>
<!DOCTYPE svg PUBLIC "-//W3C//DTD SVG 20010904//EN" "http://www.w3.org/TR/2001/REC-SVG-20010904/DTD/svg10.dtd">
<!-- Created using Krita: https://krita.org -->
<svg xmlns="http://www.w3.org/2000/svg" 
    xmlns:xlink="http://www.w3.org/1999/xlink"
    xmlns:krita="http://krita.org/namespaces/svg/krita"
    xmlns:sodipodi="http://sodipodi.sourceforge.net/DTD/sodipodi-0.dtd"
    width="297.6pt"
    height="420.96pt"
    viewBox="0 0 297.6 420.96">
<defs/>
<path id="shape0" transform="matrix(0.999999872398902 0 0 0.999999872398902 33.2879968866906 247.63202528665)" fill="none" stroke="#000000" stroke-width="0.66" stroke-linecap="square" stroke-linejoin="miter" stroke-miterlimit="2" d="M0 0" sodipodi:nodetypes="c"/><path id="shape01" transform="matrix(0.999999872398902 0 0 0.999999872398902 32.5199966326221 251.040025086496)" fill="none" stroke="#000000" stroke-width="0.66" stroke-linecap="square" stroke-linejoin="miter" stroke-miterlimit="2" d="M0 0" sodipodi:nodetypes="c"/><g id="group0" transform="matrix(0.999999979490875 0 0 0.999999979490875 45.2365737509351 83.7600275462562)" fill="none">
  <g id="group1" transform="translate(103.823283734192, 0)" fill="none">
   <path id="shape02" transform="matrix(1.0543952705412 0 0 1.01491013297234 2.8421709430404e-14 0)" sodipodi:type="arc" sodipodi:rx="40.4114954014691" sodipodi:ry="38.8561761841287" sodipodi:cx="1.0171826375936" sodipodi:cy="38.8562718275297" sodipodi:start="4.68721569575623" sodipodi:end="0.884248433396452" sodipodi:open="true" d="M26.6329 68.9091C39.9836 58.3887 44.9106 40.8762 38.8968 25.3189C32.8829 9.76159 17.256 -0.405354 -4.44089e-16 0.0124065" fill="none" stroke="#000000" stroke-width="3.6" stroke-linecap="square" stroke-linejoin="bevel"/>
   <ellipse id="shape011" transform="matrix(1.05439525419657 0 0 1.01491011723978 7.96766008628475 41.5395939115049)" rx="8.28" ry="7.55999999999999" cx="8.28" cy="7.55999999999999" fill="none" stroke="#000000" stroke-width="3.6" stroke-linecap="square" stroke-linejoin="bevel"/>
   <path id="shape04" transform="matrix(-1.05439524389848 0 0 1.01491010732733 46.8663613865123 79.5152508696594)" fill="none" stroke="#000000" stroke-width="3.6" stroke-linecap="square" stroke-linejoin="bevel" d="M0 0" sodipodi:nodetypes="c"/>
   <ellipse id="shape05" transform="matrix(1.05439530035551 0 0 1.01491016167018 12.2950396401949 43.2725915697186)" rx="4.56" ry="3.84" cx="4.56" cy="3.84" fill="none" stroke="#000000" stroke-width="3.6" stroke-linecap="square" stroke-linejoin="bevel"/>
   <path id="shape71" transform="matrix(-0.999999851045397 0 0 0.999999851045397 9.10401286527809 86.7610497567044)" fill="none" stroke="#000000" stroke-width="3.6" stroke-linecap="square" stroke-linejoin="bevel" d="M0 0L7.0958 2.03647" sodipodi:nodetypes="cc"/>
   <path id="shape31" transform="matrix(-0.999999851045397 0 0 0.999999851045397 105.088192529438 73.5897409918964)" fill="none" stroke="#000000" stroke-width="3.6" stroke-linecap="square" stroke-linejoin="bevel" d="M51.5213 1.03737C46.9215 3.29529 32.1005 40.134 0 0C23.6049 61.0132 61.6378 6.39421 68.1525 9.05597" sodipodi:nodetypes="ccc"/>
   <path id="shape01111" transform="matrix(-0.999999813311393 0 0 0.999999813311393 94.8198157523388 35.8571786349633)" fill="none" stroke="#000000" stroke-width="3.6" stroke-linecap="square" stroke-linejoin="bevel" d="M46.9118 25.8526C-5.72634 6.20124 11.7003 3.94087 52.4211 5.85232C-47.0134 -16.5733 22.7917 32.2191 37.859 38.77" sodipodi:nodetypes="ccc"/>
   <path id="shape61" transform="matrix(-0.999999851045397 0 0 0.999999851045397 35.5781034717247 83.1123928312652)" fill="none" stroke="#000000" stroke-width="3.6" stroke-linecap="square" stroke-linejoin="bevel" d="M0 0" sodipodi:nodetypes="c"/>
   <path id="shape022" transform="matrix(-0.999999800129836 0 0 0.999999800129836 69.8440760961585 43.6479431695925)" fill="none" stroke="#000000" stroke-width="3.6" stroke-linecap="square" stroke-linejoin="bevel" d="M7.83085 11.6273C4.9288 8.12323 2.98377 5.43478 0 0" sodipodi:nodetypes="cc"/>
   <path id="shape02111" transform="matrix(-0.99999978033581 0 0 0.99999978033581 80.3833865133133 13.4415733532552)" fill="none" stroke="#000000" stroke-width="3.6" stroke-linecap="square" stroke-linejoin="bevel" d="M41.0662 44.6007C0.87844 7.86358 10.0071 4.85993 41.0964 8.4333C-8.91449 -13.1045 -2.00576 12.4148 4.58355 20.843" sodipodi:nodetypes="ccc"/>
   <path id="shape031" transform="matrix(-0.999999805246846 0 0 0.999999805246846 48.6162616433707 83.2500090727968)" fill="none" stroke="#000000" stroke-width="3.6" stroke-linecap="square" stroke-linejoin="bevel" d="M12.191 0C53.6493 8.60789 -48.8964 33.9434 32.351 43.92C-16.4425 22.6023 46.2536 24.8025 37.5517 3.40589" sodipodi:nodetypes="ccc"/>
  </g>
  <g id="group2" transform="translate(0, 0.0897342474945617)" fill="none">
   <path id="shape6" transform="matrix(0.999999835927014 0 0 0.999999835927014 71.3661594461139 85.1614966150763)" fill="none" stroke="#000000" stroke-width="3.6" stroke-linecap="square" stroke-linejoin="bevel" d="M0 0" sodipodi:nodetypes="c"/>
   <path id="shape021" transform="matrix(-1.05439527855592 0 0 1.01491014068692 105.088193328238 0)" sodipodi:type="arc" sodipodi:rx="40.4114954014691" sodipodi:ry="38.8561761841287" sodipodi:cx="1.0171826375936" sodipodi:cy="38.8562718275297" sodipodi:start="4.68721569575623" sodipodi:end="0.884248433396452" sodipodi:open="true" d="M26.6329 68.9091C39.9836 58.3887 44.9106 40.8762 38.8968 25.3189C32.8829 9.76159 17.256 -0.405354 -4.44089e-16 0.0124065" fill="none" stroke="#000000" stroke-width="3.6" stroke-linecap="square" stroke-linejoin="bevel"/>
   <ellipse id="shape0111" transform="matrix(-1.05439526221129 0 0 1.01491012495436 97.12053318139 41.5395942272572)" rx="8.28" ry="7.55999999999999" cx="8.28" cy="7.55999999999999" fill="none" stroke="#000000" stroke-width="3.6" stroke-linecap="square" stroke-linejoin="bevel"/>
   <path id="shape041" transform="matrix(1.0543952519132 0 0 1.01491011504191 58.2218315854834 79.5152514740745)" fill="none" stroke="#000000" stroke-width="3.6" stroke-linecap="square" stroke-linejoin="bevel" d="M0 0" sodipodi:nodetypes="c"/>
   <ellipse id="shape051" transform="matrix(-1.05439530837023 0 0 1.01491016938476 92.7931535945865 43.2725918986441)" rx="4.56" ry="3.84" cx="4.56" cy="3.84" fill="none" stroke="#000000" stroke-width="3.6" stroke-linecap="square" stroke-linejoin="bevel"/>
   <path id="shape711" transform="matrix(0.999999858646642 0 0 0.999999858646642 95.9841803937584 86.7610504161966)" fill="none" stroke="#000000" stroke-width="3.6" stroke-linecap="square" stroke-linejoin="bevel" d="M0 0L7.0958 2.03647" sodipodi:nodetypes="cc"/>
   <path id="shape311" transform="matrix(0.999999858646642 0 0 0.999999858646642 7.105427357601e-15 73.5897415512703)" fill="none" stroke="#000000" stroke-width="3.6" stroke-linecap="square" stroke-linejoin="bevel" d="M51.5213 1.03737C46.9215 3.29529 32.1005 40.134 0 0C23.6049 61.0132 61.6378 6.39421 68.1525 9.05597" sodipodi:nodetypes="ccc"/>
   <path id="shape011111" transform="matrix(0.999999820912638 0 0 0.999999820912638 10.268393952254 35.8571806771657)" fill="none" stroke="#000000" stroke-width="3.6" stroke-linecap="square" stroke-linejoin="bevel" d="M46.9118 25.8526C-5.72636 6.20124 11.7003 3.94087 52.4211 5.85232C-47.0134 -16.5733 22.7917 32.2191 37.859 38.77" sodipodi:nodetypes="ccc"/>
   <path id="shape611" transform="matrix(0.999999858646642 0 0 0.999999858646642 69.5100895860763 83.1123934630232)" fill="none" stroke="#000000" stroke-width="3.6" stroke-linecap="square" stroke-linejoin="bevel" d="M0 0" sodipodi:nodetypes="c"/>
   <path id="shape0221" transform="matrix(0.99999980773108 0 0 0.99999980773108 35.2441167011782 43.6479435013712)" fill="none" stroke="#000000" stroke-width="3.6" stroke-linecap="square" stroke-linejoin="bevel" d="M7.83085 11.6273C4.9288 8.12323 2.98377 5.43478 0 0" sodipodi:nodetypes="cc"/>
   <path id="shape021111" transform="matrix(0.999999787937054 0 0 0.999999787937054 24.7048055441226 13.441574810432)" fill="none" stroke="#000000" stroke-width="3.6" stroke-linecap="square" stroke-linejoin="bevel" d="M41.0662 44.6007C0.878441 7.86358 10.0071 4.85993 41.0964 8.4333C-8.91449 -13.1045 -2.00576 12.4148 4.58355 20.843" sodipodi:nodetypes="ccc"/>
   <path id="shape0311" transform="matrix(0.999999812848091 0 0 0.999999812848091 56.4719136889443 83.2500097056003)" fill="none" stroke="#000000" stroke-width="3.6" stroke-linecap="square" stroke-linejoin="bevel" d="M12.191 0C53.6493 8.60789 -48.8964 33.9434 32.351 43.92C-16.4425 22.6023 46.2536 24.8025 37.5517 3.40589" sodipodi:nodetypes="ccc"/>
  </g>
 </g><path id="shape11" transform="matrix(0.999999781507386 0 0 0.999999781507386 131.449700739155 200.014455911754)" fill="none" stroke="#000000" stroke-width="5.76" stroke-linecap="square" stroke-linejoin="bevel" d="M8.77049 0L0 30.4058L25.9301 33.4849L34.7006 0.769768C26.0573 0.513179 17.4139 0.256589 8.77049 0" sodipodi:nodetypes="ccccc"/>
</svg>
