<?xml version="1.0" standalone="no"?>
<!DOCTYPE svg PUBLIC "-//W3C//DTD SVG 20010904//EN" "http://www.w3.org/TR/2001/REC-SVG-20010904/DTD/svg10.dtd">
<!-- Created using Krita: https://krita.org -->
<svg xmlns="http://www.w3.org/2000/svg" 
    xmlns:xlink="http://www.w3.org/1999/xlink"
    xmlns:krita="http://krita.org/namespaces/svg/krita"
    xmlns:sodipodi="http://sodipodi.sourceforge.net/DTD/sodipodi-0.dtd"
    width="297.6pt"
    height="420.96pt"
    viewBox="0 0 297.6 420.96">
<defs/>
<path id="shape0" transform="matrix(0.99999985188978 0 0 0.99999985188978 33.2879962039829 247.632028797155)" fill="none" stroke="#000000" stroke-width="0.66" stroke-linecap="square" stroke-linejoin="miter" stroke-miterlimit="2" d="M0 0" sodipodi:nodetypes="c"/><path id="shape01" transform="matrix(0.99999985188978 0 0 0.99999985188978 32.5199959656654 251.040028527106)" fill="none" stroke="#000000" stroke-width="0.66" stroke-linecap="square" stroke-linejoin="miter" stroke-miterlimit="2" d="M0 0" sodipodi:nodetypes="c"/><g id="group0" transform="matrix(0.999999958981751 0 0 0.999999958981751 45.2365728231725 83.7600344176328)" fill="none">
  <g id="group1" transform="translate(103.823283734192, 0)" fill="none">
   <path id="shape02" transform="matrix(1.0543952705412 0 0 1.01491013297234 2.8421709430404e-14 0)" sodipodi:type="arc" sodipodi:rx="40.4114954014691" sodipodi:ry="38.8561761841287" sodipodi:cx="1.0171826375936" sodipodi:cy="38.8562718275297" sodipodi:start="4.68721569575623" sodipodi:end="0.884248433396452" sodipodi:open="true" d="M26.6329 68.9091C39.9836 58.3887 44.9106 40.8762 38.8968 25.3189C32.8829 9.76159 17.256 -0.405354 -4.44089e-16 0.0124065" fill="none" stroke="#000000" stroke-width="3.6" stroke-linecap="square" stroke-linejoin="bevel"/>
   <ellipse id="shape011" transform="matrix(1.05439525419657 0 0 1.01491011723978 7.96766008628475 41.5395939115049)" rx="8.28" ry="7.55999999999999" cx="8.28" cy="7.55999999999999" fill="none" stroke="#000000" stroke-width="3.6" stroke-linecap="square" stroke-linejoin="bevel"/>
   <path id="shape04" transform="matrix(-1.05439524389848 0 0 1.01491010732733 46.8663613865123 79.5152508696594)" fill="none" stroke="#000000" stroke-width="3.6" stroke-linecap="square" stroke-linejoin="bevel" d="M0 0" sodipodi:nodetypes="c"/>
   <ellipse id="shape05" transform="matrix(1.05439530035551 0 0 1.01491016167018 12.2950396401949 43.2725915697186)" rx="4.56" ry="3.84" cx="4.56" cy="3.84" fill="none" stroke="#000000" stroke-width="3.6" stroke-linecap="square" stroke-linejoin="bevel"/>
   <path id="shape71" transform="matrix(-0.999999851045397 0 0 0.999999851045397 9.10401286527809 86.7610497567044)" fill="none" stroke="#000000" stroke-width="3.6" stroke-linecap="square" stroke-linejoin="bevel" d="M0 0L7.0958 2.03647" sodipodi:nodetypes="cc"/>
   <path id="shape31" transform="matrix(-0.999999851045397 0 0 0.999999851045397 105.088192529438 73.5897409918964)" fill="none" stroke="#000000" stroke-width="3.6" stroke-linecap="square" stroke-linejoin="bevel" d="M51.5213 1.03737C46.9215 3.29529 32.1005 40.134 0 0C23.6049 61.0132 61.6378 6.39421 68.1525 9.05597" sodipodi:nodetypes="ccc"/>
   <path id="shape01111" transform="matrix(-0.999999813311393 0 0 0.999999813311393 94.819798655236 35.8571804046063)" fill="none" stroke="#000000" stroke-width="3.6" stroke-linecap="square" stroke-linejoin="bevel" d="M46.9118 25.8526C-5.72636 6.20124 11.7003 3.94087 52.4211 5.85232C-47.0134 -16.5733 22.7917 32.2191 37.859 38.77" sodipodi:nodetypes="ccc"/>
   <path id="shape61" transform="matrix(-0.999999851045397 0 0 0.999999851045397 35.5781034717247 83.1123928312652)" fill="none" stroke="#000000" stroke-width="3.6" stroke-linecap="square" stroke-linejoin="bevel" d="M0 0" sodipodi:nodetypes="c"/>
   <path id="shape022" transform="matrix(-0.999999800129836 0 0 0.999999800129836 69.8440760961585 43.6479431695925)" fill="none" stroke="#000000" stroke-width="3.6" stroke-linecap="square" stroke-linejoin="bevel" d="M7.83085 11.6273C4.9288 8.12323 2.98377 5.43478 0 0" sodipodi:nodetypes="cc"/>
   <path id="shape02111" transform="matrix(-0.99999978033581 0 0 0.99999978033581 80.3833871731021 13.4415747082593)" fill="none" stroke="#000000" stroke-width="3.6" stroke-linecap="square" stroke-linejoin="bevel" d="M41.0662 44.6007C0.878441 7.86358 10.0071 4.85993 41.0964 8.4333C-8.91449 -13.1045 -2.00576 12.4148 4.58355 20.843" sodipodi:nodetypes="ccc"/>
   <path id="shape031" transform="matrix(-0.999999805246846 0 0 0.999999805246846 48.6162792697495 83.2500090727968)" fill="none" stroke="#000000" stroke-width="3.6" stroke-linecap="square" stroke-linejoin="bevel" d="M12.191 0C53.6493 8.60789 -48.8964 33.9434 32.351 43.92C-16.4425 22.6023 46.2536 24.8025 37.5517 3.40589" sodipodi:nodetypes="ccc"/>
  </g>
  <g id="group2" transform="translate(0, 0.0897342474945617)" fill="none">
   <path id="shape6" transform="matrix(0.999999835927014 0 0 0.999999835927014 71.3661594461139 85.1614966150763)" fill="none" stroke="#000000" stroke-width="3.6" stroke-linecap="square" stroke-linejoin="bevel" d="M0 0" sodipodi:nodetypes="c"/>
   <path id="shape021" transform="matrix(-1.05439527855592 0 0 1.01491014068692 105.088193328238 0)" sodipodi:type="arc" sodipodi:rx="40.4114954014691" sodipodi:ry="38.8561761841287" sodipodi:cx="1.0171826375936" sodipodi:cy="38.8562718275297" sodipodi:start="4.68721569575623" sodipodi:end="0.884248433396452" sodipodi:open="true" d="M26.6329 68.9091C39.9836 58.3887 44.9106 40.8762 38.8968 25.3189C32.8829 9.76159 17.256 -0.405354 -4.44089e-16 0.0124065" fill="none" stroke="#000000" stroke-width="3.6" stroke-linecap="square" stroke-linejoin="bevel"/>
   <ellipse id="shape0111" transform="matrix(-1.05439526221129 0 0 1.01491012495436 97.12053318139 41.5395942272572)" rx="8.28" ry="7.55999999999999" cx="8.28" cy="7.55999999999999" fill="none" stroke="#000000" stroke-width="3.6" stroke-linecap="square" stroke-linejoin="bevel"/>
   <path id="shape041" transform="matrix(1.0543952519132 0 0 1.01491011504191 58.2218315854834 79.5152514740745)" fill="none" stroke="#000000" stroke-width="3.6" stroke-linecap="square" stroke-linejoin="bevel" d="M0 0" sodipodi:nodetypes="c"/>
   <ellipse id="shape051" transform="matrix(-1.05439530837023 0 0 1.01491016938476 92.7931535945865 43.2725918986441)" rx="4.56" ry="3.84" cx="4.56" cy="3.84" fill="none" stroke="#000000" stroke-width="3.6" stroke-linecap="square" stroke-linejoin="bevel"/>
   <path id="shape711" transform="matrix(0.999999858646642 0 0 0.999999858646642 95.9841803937584 86.7610504161966)" fill="none" stroke="#000000" stroke-width="3.6" stroke-linecap="square" stroke-linejoin="bevel" d="M0 0L7.0958 2.03647" sodipodi:nodetypes="cc"/>
   <path id="shape311" transform="matrix(0.999999858646642 0 0 0.999999858646642 7.105427357601e-15 73.5897415512703)" fill="none" stroke="#000000" stroke-width="3.6" stroke-linecap="square" stroke-linejoin="bevel" d="M51.5213 1.03737C46.9215 3.29529 32.1005 40.134 0 0C23.6049 61.0132 61.6378 6.39421 68.1525 9.05597" sodipodi:nodetypes="ccc"/>
   <path id="shape011111" transform="matrix(0.999999820912638 0 0 0.999999820912638 10.2684110493569 35.8571824468087)" fill="none" stroke="#000000" stroke-width="3.6" stroke-linecap="square" stroke-linejoin="bevel" d="M46.9118 25.8526C-5.72638 6.20124 11.7003 3.94087 52.4211 5.85232C-47.0134 -16.5733 22.7917 32.2191 37.859 38.77" sodipodi:nodetypes="ccc"/>
   <path id="shape611" transform="matrix(0.999999858646642 0 0 0.999999858646642 69.5100895860763 83.1123934630232)" fill="none" stroke="#000000" stroke-width="3.6" stroke-linecap="square" stroke-linejoin="bevel" d="M0 0" sodipodi:nodetypes="c"/>
   <path id="shape0221" transform="matrix(0.99999980773108 0 0 0.99999980773108 35.2441167011782 43.6479435013712)" fill="none" stroke="#000000" stroke-width="3.6" stroke-linecap="square" stroke-linejoin="bevel" d="M7.83085 11.6273C4.9288 8.12323 2.98377 5.43478 0 0" sodipodi:nodetypes="cc"/>
   <path id="shape021111" transform="matrix(0.999999787937054 0 0 0.999999787937054 24.7048048843338 13.4415761654361)" fill="none" stroke="#000000" stroke-width="3.6" stroke-linecap="square" stroke-linejoin="bevel" d="M41.0662 44.6007C0.878442 7.86358 10.0071 4.85993 41.0964 8.4333C-8.91449 -13.1045 -2.00576 12.4148 4.58355 20.843" sodipodi:nodetypes="ccc"/>
   <path id="shape0311" transform="matrix(0.999999812848091 0 0 0.999999812848091 56.4718960625653 83.2500097056003)" fill="none" stroke="#000000" stroke-width="3.6" stroke-linecap="square" stroke-linejoin="bevel" d="M12.191 0C53.6493 8.60789 -48.8964 33.9434 32.351 43.92C-16.4425 22.6023 46.2536 24.8025 37.5517 3.40589" sodipodi:nodetypes="ccc"/>
  </g>
 </g><path id="shape11" transform="matrix(0.999999760998266 0 0 0.999999760998266 131.449698043237 200.014460398854)" fill="none" stroke="#000000" stroke-width="5.76" stroke-linecap="square" stroke-linejoin="bevel" d="M8.77049 0L0 30.4058L25.9301 33.4849L34.7006 0.769768C26.0573 0.513179 17.4139 0.256589 8.77049 0" sodipodi:nodetypes="ccccc"/><g id="group01" transform="matrix(0.999999979490875 0 0 0.999999979490875 115.485939717616 129.124731022682)" fill="none">
  <ellipse id="shape8" transform="matrix(0.982474046741211 0 0 0.999999855519257 0 -2.8421709430404e-14)" rx="15.84" ry="9.11999999999999" cx="15.84" cy="9.11999999999999" fill="none" stroke="#000000" stroke-width="1.68" stroke-linecap="square" stroke-linejoin="bevel"/>
  <ellipse id="shape06" transform="matrix(0.982474027270327 0 0 0.999999835701043 37.8592927006627 0.0251192871706678)" rx="15.84" ry="9.11999999999999" cx="15.84" cy="9.11999999999999" fill="none" stroke="#000000" stroke-width="1.68" stroke-linecap="square" stroke-linejoin="bevel"/>
  <path id="shape9" transform="matrix(0.982474046741211 0 0 0.999999855519257 31.5356909826308 9.29824180939465)" fill="none" stroke="#000000" stroke-width="1.68" stroke-linecap="square" stroke-linejoin="bevel" d="M0 0L6.48 0" sodipodi:nodetypes="cc"/>
  <path id="shape10" transform="matrix(0.982474046741211 0 0 0.999999855519257 31.7776213729496 21.3777073748809)" fill="none" stroke="#000000" stroke-width="1.68" stroke-linecap="square" stroke-linejoin="bevel" d="M0 0.509117L2.51374 4.07294L6.1094 0" sodipodi:nodetypes="ccc"/>
 </g><ellipse id="shape07" transform="matrix(0.999999839180403 0 0 0.999999839180403 114.267027827103 118.712372779306)" rx="1.08" ry="0.839999999999996" cx="1.08" cy="0.839999999999996" fill="none" stroke="#000000" stroke-width="1.68" stroke-linecap="square" stroke-linejoin="bevel"/><ellipse id="shape010" transform="matrix(0.999999851461732 0 0 0.999999851461732 118.647850469615 112.779584581869)" rx="1.08" ry="0.839999999999996" cx="1.08" cy="0.839999999999996" fill="none" stroke="#000000" stroke-width="1.68" stroke-linecap="square" stroke-linejoin="bevel"/><ellipse id="shape01111" transform="matrix(0.999999824393563 0 0 0.999999824393563 121.710344673801 119.414060845097)" rx="1.08" ry="0.839999999999996" cx="1.08" cy="0.839999999999996" fill="none" stroke="#000000" stroke-width="1.68" stroke-linecap="square" stroke-linejoin="bevel"/><ellipse id="shape071" transform="matrix(0.999999825168971 0 0 0.999999825168971 174.580000097415 118.437229613023)" rx="1.08" ry="0.839999999999996" cx="1.08" cy="0.839999999999996" fill="none" stroke="#000000" stroke-width="1.68" stroke-linecap="square" stroke-linejoin="bevel"/><ellipse id="shape0101" transform="matrix(0.9999998374503 0 0 0.9999998374503 178.960822678544 112.504441498713)" rx="1.08" ry="0.839999999999996" cx="1.08" cy="0.839999999999996" fill="none" stroke="#000000" stroke-width="1.68" stroke-linecap="square" stroke-linejoin="bevel"/><ellipse id="shape011111" transform="matrix(0.999999810382132 0 0 0.999999810382132 182.023316839821 119.138917668982)" rx="1.08" ry="0.839999999999996" cx="1.08" cy="0.839999999999996" fill="none" stroke="#000000" stroke-width="1.68" stroke-linecap="square" stroke-linejoin="bevel"/><g id="group02" transform="matrix(0.999999926973106 0 0 0.999999926973106 139.687379403563 206.277210660032)" fill="none">
  <path id="shape01" transform="matrix(0.999999917963504 0 0 0.999999917963504 -2.8421709430404e-14 16.5462974109089)" fill="none" stroke="#000000" stroke-width="1.8" stroke-linecap="square" stroke-linejoin="miter" stroke-miterlimit="2" d="M0 0L12.7279 2.03647" sodipodi:nodetypes="cc"/>
  <path id="shape011" transform="matrix(0.999999928501113 0 0 0.999999928501113 0.381837632557733 11.8369666164531)" fill="none" stroke="#000000" stroke-width="1.8" stroke-linecap="square" stroke-linejoin="miter" stroke-miterlimit="2" d="M0 0L13.7462 2.03647" sodipodi:nodetypes="cc"/>
  <path id="shape0111" transform="matrix(0.999999928501113 0 0 0.999999928501113 3.33109712106608 7.68947344325753)" fill="none" stroke="#000000" stroke-width="1.8" stroke-linecap="square" stroke-linejoin="miter" stroke-miterlimit="2" d="M0 0L11.9885 1.50919" sodipodi:nodetypes="cc"/>
  <path id="shape021" transform="matrix(0.999999928501113 0 0 0.999999928501113 3.46080933827179 3.54565687424059)" fill="none" stroke="#000000" stroke-width="1.8" stroke-linecap="square" stroke-linejoin="miter" stroke-miterlimit="2" d="M0 0L13.4355 1.54551" sodipodi:nodetypes="cc"/>
  <path id="shape03" transform="matrix(0.999999928501113 0 0 0.999999928501113 8.78226554886538 -8.5265128291212e-14)" fill="none" stroke="#000000" stroke-width="1.8" stroke-linecap="square" stroke-linejoin="miter" stroke-miterlimit="2" d="M0 0L9.44296 0.978401" sodipodi:nodetypes="cc"/>
 </g>
</svg>
