<?xml version="1.0" standalone="no"?>
<!DOCTYPE svg PUBLIC "-//W3C//DTD SVG 20010904//EN" "http://www.w3.org/TR/2001/REC-SVG-20010904/DTD/svg10.dtd">
<!-- Created using Krita: https://krita.org -->
<svg xmlns="http://www.w3.org/2000/svg" 
    xmlns:xlink="http://www.w3.org/1999/xlink"
    xmlns:krita="http://krita.org/namespaces/svg/krita"
    xmlns:sodipodi="http://sodipodi.sourceforge.net/DTD/sodipodi-0.dtd"
    width="297.6pt"
    height="420.96pt"
    viewBox="0 0 297.6 420.96">
<defs/>
<g id="group0" transform="matrix(0.999999979490875 0 0 0.999999979490875 139.687384698282 206.277212904031)" fill="none">
  <path id="shape0" transform="matrix(0.999999917963504 0 0 0.999999917963504 -2.8421709430404e-14 16.5462974109089)" fill="none" stroke="#000000" stroke-width="1.8" stroke-linecap="square" stroke-linejoin="miter" stroke-miterlimit="2" d="M0 0L12.7279 2.03647" sodipodi:nodetypes="cc"/>
  <path id="shape01" transform="matrix(0.999999928501113 0 0 0.999999928501113 0.381837632557819 11.8369666164531)" fill="none" stroke="#000000" stroke-width="1.8" stroke-linecap="square" stroke-linejoin="miter" stroke-miterlimit="2" d="M0 0L13.7462 2.03647" sodipodi:nodetypes="cc"/>
  <path id="shape011" transform="matrix(0.999999928501113 0 0 0.999999928501113 3.33109712106611 7.68947344325755)" fill="none" stroke="#000000" stroke-width="1.8" stroke-linecap="square" stroke-linejoin="miter" stroke-miterlimit="2" d="M0 0L11.9885 1.50919" sodipodi:nodetypes="cc"/>
  <path id="shape02" transform="matrix(0.999999928501113 0 0 0.999999928501113 3.46080933827182 3.54565687424065)" fill="none" stroke="#000000" stroke-width="1.8" stroke-linecap="square" stroke-linejoin="miter" stroke-miterlimit="2" d="M0 0L13.4355 1.54551" sodipodi:nodetypes="cc"/>
  <path id="shape03" transform="matrix(0.999999928501113 0 0 0.999999928501113 8.78226554886541 -2.8421709430404e-14)" fill="none" stroke="#000000" stroke-width="1.8" stroke-linecap="square" stroke-linejoin="miter" stroke-miterlimit="2" d="M0 0L9.44296 0.978401" sodipodi:nodetypes="cc"/>
 </g>
</svg>
